<svg width="36" height="36" viewBox="0 0 36 36" fill="none" xmlns="http://www.w3.org/2000/svg">
<path d="M28.5793 21.0044C28.1534 21.0044 27.7551 21.1682 27.458 21.4654L21.4651 27.4583C20.8467 28.0764 20.8467 29.0826 21.4648 29.7011L24.5228 32.7593C24.8197 33.0565 25.218 33.2201 25.6439 33.2201C26.0697 33.2201 26.468 33.0565 26.7649 32.7593L32.759 26.7653C33.0559 26.4678 33.2198 26.0698 33.2198 25.6437C33.2198 25.2179 33.0559 24.8198 32.759 24.5226L29.7008 21.4652C29.4036 21.1682 29.0053 21.0044 28.5793 21.0044V21.0044ZM25.6439 35.9993C24.4756 35.9993 23.3793 35.5464 22.5574 34.7241L19.4995 31.666C17.7981 29.964 17.7981 27.1949 19.5001 25.493L25.4929 19.5001C26.3147 18.6782 27.4112 18.2253 28.5793 18.2253C29.7475 18.2253 30.8435 18.678 31.6656 19.4999L34.7238 22.5574C35.5461 23.3794 35.9986 24.4755 35.9988 25.6437C35.9988 26.812 35.5463 27.908 34.7242 28.7301L28.73 34.7241C27.9081 35.5464 26.8119 35.9993 25.6439 35.9993Z" fill="#313131"/>
<path d="M7.41889 21.0044C6.99286 21.0044 6.59459 21.1682 6.29738 21.4652L3.23991 24.5226C2.94258 24.8198 2.77907 25.2179 2.77907 25.6437C2.77891 26.0698 2.94258 26.4678 3.23991 26.7653L9.23362 32.7593C9.53092 33.0565 9.9291 33.2201 10.3549 33.2201C10.7808 33.2201 11.1791 33.0565 11.4763 32.7591L14.5351 29.7009C14.8321 29.4037 14.9959 29.0054 14.9959 28.5796C14.9959 28.1538 14.8321 27.7555 14.5349 27.4585L8.54059 21.4652C8.24325 21.1682 7.84501 21.0044 7.41889 21.0044ZM10.3549 35.9993C9.18672 35.9993 8.09048 35.5464 7.2686 34.7241L1.27464 28.7301C0.452645 27.908 0 26.812 0 25.6437C0 24.4755 0.452909 23.3794 1.27508 22.5574L4.33225 19.4999C5.15451 18.678 6.25064 18.2253 7.41889 18.2253C8.58703 18.2253 9.68318 18.678 10.5053 19.4999L16.4997 25.4932C17.3219 26.3153 17.7748 27.4113 17.7751 28.5796C17.7751 29.7478 17.3222 30.8439 16.5002 31.6662L13.4412 34.7243C12.6192 35.5464 11.5231 35.9993 10.3549 35.9993" fill="#313131"/>
<path d="M10.3549 2.77925C9.9291 2.77925 9.53092 2.94285 9.2338 3.24005L3.23966 9.23429C2.94258 9.53149 2.77891 9.92955 2.77891 10.3556C2.77891 10.7816 2.94258 11.1797 3.23991 11.4769L6.29753 14.5346C6.5946 14.8318 6.99286 14.9954 7.41889 14.9954C7.84483 14.9954 8.24298 14.8316 8.54005 14.5346L14.5338 8.54016C15.1521 7.92207 15.1519 6.91585 14.5338 6.29754L11.4763 3.24005C11.1791 2.94285 10.7808 2.77925 10.3549 2.77925V2.77925ZM7.41889 17.7745C6.25064 17.7745 5.15451 17.3218 4.33252 16.4999L1.27481 13.442C0.452645 12.6199 1.1574e-07 11.5239 1.1574e-07 10.3556C-0.000264332 9.18735 0.452645 8.09132 1.27464 7.26924L7.2686 1.27499C8.09048 0.452903 9.18672 1.54701e-07 10.3549 1.54701e-07C11.5231 1.54701e-07 12.6192 0.452903 13.4414 1.27499L16.4989 4.33248C18.2006 6.03442 18.2008 8.80328 16.4991 10.5052L10.5053 16.4997C9.68318 17.3215 8.58703 17.7745 7.41889 17.7745" fill="#313131"/>
<path d="M25.6441 2.77926C25.2181 2.77926 24.8198 2.94287 24.5228 3.24006L21.4651 6.29823C21.1678 6.59542 21.0041 6.99371 21.0041 7.41954C21.0041 7.84536 21.1678 8.24366 21.4651 8.54063L27.4587 14.534C27.7559 14.8312 28.1542 14.995 28.58 14.995C29.006 14.995 29.4046 14.8312 29.7015 14.5342L32.7599 11.4767C33.0571 11.1793 33.2209 10.7814 33.2209 10.3556C33.2209 9.92957 33.0571 9.53173 32.7601 9.23454L26.7652 3.24006C26.468 2.94264 26.0697 2.77926 25.6441 2.77926V2.77926ZM28.58 17.7738C27.412 17.7738 26.3157 17.3211 25.4936 16.4992L19.5001 10.5059C18.6779 9.68383 18.2252 8.58779 18.2252 7.41954C18.225 6.25129 18.6779 5.15525 19.4998 4.33317L22.5575 1.275C23.3794 0.452916 24.4757 1.32287e-05 25.6441 1.32287e-05C26.8119 1.32287e-05 27.9082 0.452695 28.7303 1.27478L34.7252 7.26925C35.5471 8.09134 36 9.18737 36 10.3556C35.9997 11.5239 35.5468 12.6199 34.7248 13.442L31.6664 16.4995C30.8445 17.3211 29.7482 17.7738 28.58 17.7738" fill="#313131"/>
<path d="M10.579 8.80893C9.6027 8.80893 8.80858 9.60325 8.80858 10.5797V25.4194C8.80858 26.3956 9.6027 27.1902 10.579 27.1902H25.4192C26.3956 27.1902 27.1897 26.3956 27.1897 25.4194V10.5797C27.1897 9.60325 26.3956 8.80893 25.4192 8.80893H10.579ZM25.4192 29.969H10.579C8.07032 29.969 6.02942 27.9281 6.02942 25.4194V10.5797C6.02942 8.07101 8.07032 6.0299 10.579 6.0299H25.4192C27.9279 6.0299 29.969 8.07101 29.969 10.5797V25.4194C29.969 27.9281 27.9279 29.969 25.4192 29.969" fill="#313131"/>
</svg>
