<svg width="1129" height="663" viewBox="0 0 1129 663" fill="none" xmlns="http://www.w3.org/2000/svg">
<g clip-path="url(#clip0_1_472)">
<path d="M321 642C498.283 642 642 498.283 642 321C642 143.717 498.283 0 321 0C143.717 0 0 143.717 0 321C0 498.283 143.717 642 321 642Z" fill="#F2F2F2"/>
<path d="M559 663C842.874 663 1073 650.688 1073 635.5C1073 620.312 842.874 608 559 608C275.126 608 45 620.312 45 635.5C45 650.688 275.126 663 559 663Z" fill="#3F3D56"/>
<path opacity="0.2" d="M558 649C812.051 649 1018 639.15 1018 627C1018 614.85 812.051 605 558 605C303.949 605 98 614.85 98 627C98 639.15 303.949 649 558 649Z" fill="black"/>
<path d="M971 152.5H131V202.5H971V152.5Z" fill="#3F3D56"/>
<path d="M131 608.83C131 611.676 131.561 614.494 132.65 617.123C133.739 619.752 135.335 622.141 137.347 624.153C139.359 626.165 141.748 627.761 144.377 628.85C147.006 629.939 149.824 630.5 152.67 630.5H949.33C952.176 630.5 954.994 629.939 957.623 628.85C960.252 627.761 962.641 626.165 964.653 624.153C966.665 622.141 968.261 619.752 969.35 617.123C970.439 614.494 971 611.676 971 608.83V177.5H131V608.83Z" fill="#3F3D56"/>
<path d="M949.33 117.5H152.67C149.824 117.5 147.006 118.061 144.377 119.15C141.748 120.239 139.359 121.835 137.347 123.847C135.335 125.859 133.739 128.248 132.65 130.877C131.561 133.506 131 136.324 131 139.17V177.5H971V139.17C971 136.324 970.439 133.506 969.35 130.877C968.261 128.248 966.665 125.859 964.653 123.847C962.641 121.835 960.252 120.239 957.623 119.15C954.994 118.061 952.176 117.5 949.33 117.5V117.5Z" fill="#3F3D56"/>
<path opacity="0.2" d="M949.33 117.5H152.67C149.824 117.5 147.006 118.061 144.377 119.15C141.748 120.239 139.359 121.835 137.347 123.847C135.335 125.859 133.739 128.248 132.65 130.877C131.561 133.506 131 136.324 131 139.17V177.5H971V139.17C971 136.324 970.439 133.506 969.35 130.877C968.261 128.248 966.665 125.859 964.653 123.847C962.641 121.835 960.252 120.239 957.623 119.15C954.994 118.061 952.176 117.5 949.33 117.5V117.5Z" fill="black"/>
<path d="M181 160.5C188.18 160.5 194 154.68 194 147.5C194 140.32 188.18 134.5 181 134.5C173.82 134.5 168 140.32 168 147.5C168 154.68 173.82 160.5 181 160.5Z" fill="#3F3D56"/>
<path d="M217 160.5C224.18 160.5 230 154.68 230 147.5C230 140.32 224.18 134.5 217 134.5C209.82 134.5 204 140.32 204 147.5C204 154.68 209.82 160.5 217 160.5Z" fill="#3F3D56"/>
<path d="M253 160.5C260.18 160.5 266 154.68 266 147.5C266 140.32 260.18 134.5 253 134.5C245.82 134.5 240 140.32 240 147.5C240 154.68 245.82 160.5 253 160.5Z" fill="#3F3D56"/>
<path d="M499.665 213.5H173.335C170.389 213.5 168 215.889 168 218.835V594.165C168 597.111 170.389 599.5 173.335 599.5H499.665C502.611 599.5 505 597.111 505 594.165V218.835C505 215.889 502.611 213.5 499.665 213.5Z" fill="#606060"/>
<path d="M881.524 272.5H608.476C605.452 272.5 603 274.952 603 277.976V289.024C603 292.048 605.452 294.5 608.476 294.5H881.524C884.548 294.5 887 292.048 887 289.024V277.976C887 274.952 884.548 272.5 881.524 272.5Z" fill="#F1F1F1"/>
<path d="M947.524 352.5H542.476C539.452 352.5 537 354.952 537 357.976V362.024C537 365.048 539.452 367.5 542.476 367.5H947.524C950.548 367.5 953 365.048 953 362.024V357.976C953 354.952 950.548 352.5 947.524 352.5Z" fill="#606060"/>
<path d="M947.524 396H542.476C539.452 396 537 398.452 537 401.476V405.524C537 408.548 539.452 411 542.476 411H947.524C950.548 411 953 408.548 953 405.524V401.476C953 398.452 950.548 396 947.524 396Z" fill="#606060"/>
<path d="M947.524 440.5H542.476C539.452 440.5 537 442.952 537 445.976V450.024C537 453.048 539.452 455.5 542.476 455.5H947.524C950.548 455.5 953 453.048 953 450.024V445.976C953 442.952 950.548 440.5 947.524 440.5Z" fill="#606060"/>
<path d="M947.524 484.5H542.476C539.452 484.5 537 486.952 537 489.976V494.024C537 497.048 539.452 499.5 542.476 499.5H947.524C950.548 499.5 953 497.048 953 494.024V489.976C953 486.952 950.548 484.5 947.524 484.5Z" fill="#606060"/>
<path d="M945.972 552.5H872.028C868.146 552.5 865 555.646 865 559.528V571.472C865 575.354 868.146 578.5 872.028 578.5H945.972C949.854 578.5 953 575.354 953 571.472V559.528C953 555.646 949.854 552.5 945.972 552.5Z" fill="#3ECC5F"/>
<path d="M1053.1 506.116C1055.76 501.472 1057.14 496.202 1057.09 490.85C1057.09 477.053 1048.54 465.869 1038 465.869C1027.46 465.869 1018.92 477.053 1018.92 490.85C1018.87 496.202 1020.24 501.472 1022.9 506.116C1020.29 510.78 1018.92 516.036 1018.92 521.382C1018.92 526.728 1020.29 531.984 1022.9 536.648C1020.29 541.312 1018.92 546.569 1018.92 551.914C1018.92 557.26 1020.29 562.516 1022.9 567.18C1020.29 571.844 1018.92 577.101 1018.92 582.446C1018.92 587.792 1020.29 593.048 1022.9 597.712C1020.24 602.356 1018.87 607.626 1018.92 612.978C1018.92 626.775 1027.46 637.959 1038 637.959C1048.54 637.959 1057.09 626.775 1057.09 612.978C1057.14 607.626 1055.76 602.356 1053.1 597.712C1055.71 593.048 1057.09 587.792 1057.09 582.446C1057.09 577.101 1055.71 571.844 1053.1 567.18C1055.71 562.516 1057.09 557.26 1057.09 551.914C1057.09 546.569 1055.71 541.312 1053.1 536.648C1055.71 531.984 1057.09 526.728 1057.09 521.382C1057.09 516.036 1055.71 510.78 1053.1 506.116Z" fill="#3F3D56"/>
<path d="M1038 485.299C1048.54 485.299 1057.09 474.114 1057.09 460.318C1057.09 446.521 1048.54 435.337 1038 435.337C1027.46 435.337 1018.92 446.521 1018.92 460.318C1018.92 474.114 1027.46 485.299 1038 485.299Z" fill="#3F3D56"/>
<path d="M1038 454.767C1048.54 454.767 1057.09 443.582 1057.09 429.786C1057.09 415.989 1048.54 404.805 1038 404.805C1027.46 404.805 1018.92 415.989 1018.92 429.786C1018.92 443.582 1027.46 454.767 1038 454.767Z" fill="#3F3D56"/>
<path fill-rule="evenodd" clip-rule="evenodd" d="M1109.44 220.845C1112.05 217.526 1114.42 214.031 1116.55 210.384L1066.4 202.149L1120.63 202.552C1125.84 191.234 1128.67 178.973 1128.97 166.519C1129.27 154.066 1127.03 141.682 1122.38 130.126L1049.62 167.868L1116.72 118.547C1110.43 107.684 1101.98 98.2326 1091.88 90.7803C1081.78 83.3281 1070.26 78.0351 1058.03 75.231C1045.79 72.4269 1033.11 72.1719 1020.78 74.4817C1008.44 76.7916 996.713 81.6168 986.323 88.6569C975.933 95.697 967.105 104.801 960.387 115.402C953.669 126.003 949.206 137.874 947.276 150.275C945.346 162.676 945.99 175.341 949.168 187.482C952.347 199.624 957.991 210.98 965.75 220.845C961.686 226.011 958.191 231.599 955.325 237.514L1020.41 271.329L951.011 248.037C946.138 262.442 944.934 277.835 947.508 292.822C950.081 307.81 956.351 321.919 965.75 333.874C955.145 347.356 948.548 363.551 946.713 380.606C944.878 397.662 947.879 414.889 955.374 430.319C962.868 445.749 974.554 458.759 989.093 467.86C1003.63 476.962 1020.44 481.789 1037.59 481.789C1054.75 481.789 1071.56 476.962 1086.1 467.86C1100.63 458.759 1112.32 445.749 1119.81 430.319C1127.31 414.889 1130.31 397.662 1128.48 380.606C1126.64 363.551 1120.04 347.356 1109.44 333.874C1122.11 317.761 1129 297.858 1129 277.359C1129 256.861 1122.11 236.957 1109.44 220.845V220.845Z" fill="#3ECC5F"/>
<path opacity="0.1" d="M946.188 277.359C946.157 297.863 953.05 317.777 965.75 333.874C955.145 347.356 948.548 363.551 946.713 380.606C944.878 397.662 947.879 414.889 955.374 430.319C962.868 445.749 974.554 458.759 989.093 467.861C1003.63 476.962 1020.44 481.789 1037.59 481.789C1054.75 481.789 1071.56 476.962 1086.1 467.861C1100.63 458.759 1112.32 445.749 1119.81 430.319C1127.31 414.889 1130.31 397.662 1128.48 380.606C1126.64 363.551 1120.04 347.356 1109.44 333.874C1121.69 318.321 946.188 267.1 946.188 277.359Z" fill="black"/>
<path d="M414.726 413.283C411.497 413.283 408.476 414.525 406.223 416.779L360.777 462.225C356.087 466.913 356.087 474.543 360.775 479.233L383.965 502.425C386.216 504.678 389.237 505.919 392.466 505.919C395.695 505.919 398.716 504.678 400.967 502.425L446.422 456.97C448.674 454.714 449.917 451.696 449.917 448.465C449.917 445.236 448.674 442.217 446.422 439.963L423.231 416.778C420.977 414.525 417.957 413.283 414.726 413.283ZM392.466 526.995C383.607 526.995 375.293 523.56 369.06 517.324L345.871 494.134C332.969 481.227 332.969 460.228 345.876 447.322L391.321 401.876C397.553 395.643 405.868 392.208 414.726 392.208C423.585 392.208 431.897 395.641 438.131 401.874L461.322 425.06C467.558 431.294 470.989 439.606 470.991 448.465C470.991 457.324 467.559 465.636 461.325 471.87L415.869 517.324C409.636 523.56 401.324 526.995 392.466 526.995Z" fill="#F1F1F1"/>
<path d="M254.26 413.283C251.029 413.283 248.009 414.525 245.755 416.778L222.569 439.963C220.315 442.217 219.075 445.236 219.075 448.465C219.073 451.696 220.315 454.714 222.569 456.97L268.022 502.425C270.276 504.678 273.296 505.919 276.525 505.919C279.754 505.919 282.775 504.678 285.029 502.423L308.225 479.232C310.477 476.978 311.719 473.958 311.719 470.729C311.719 467.5 310.477 464.479 308.223 462.227L262.766 416.778C260.511 414.525 257.491 413.283 254.26 413.283ZM276.525 526.995C267.666 526.995 259.353 523.56 253.12 517.324L207.666 471.87C201.433 465.636 198 457.324 198 448.465C198 439.606 201.435 431.294 207.669 425.06L230.853 401.874C237.088 395.641 245.401 392.208 254.26 392.208C263.118 392.208 271.431 395.641 277.665 401.874L323.123 447.323C329.358 453.558 332.792 461.869 332.795 470.729C332.795 479.587 329.36 487.9 323.127 494.135L299.929 517.326C293.696 523.56 285.384 526.995 276.525 526.995Z" fill="#F1F1F1"/>
<path d="M276.525 275.076C273.296 275.076 270.276 276.317 268.023 278.57L222.567 324.027C220.315 326.28 219.073 329.299 219.073 332.53C219.073 335.76 220.315 338.779 222.569 341.033L245.756 364.221C248.009 366.474 251.029 367.715 254.26 367.715C257.49 367.715 260.509 366.473 262.762 364.221L308.215 318.763C312.903 314.076 312.902 306.445 308.215 301.756L285.029 278.57C282.775 276.317 279.754 275.076 276.525 275.076ZM254.26 388.79C245.401 388.79 237.088 385.357 230.855 379.124L207.667 355.935C201.433 349.701 198 341.39 198 332.53C197.998 323.671 201.433 315.359 207.666 309.125L253.12 263.669C259.353 257.435 267.666 254 276.525 254C285.384 254 293.696 257.435 299.931 263.669L323.117 286.855C336.021 299.761 336.023 320.758 323.118 333.664L277.665 379.123C271.431 385.355 263.118 388.79 254.26 388.79Z" fill="#F1F1F1"/>
<path d="M392.468 275.076C389.237 275.076 386.217 276.317 383.965 278.57L360.777 301.761C358.522 304.015 357.281 307.036 357.281 310.265C357.281 313.494 358.522 316.514 360.777 318.766L406.228 364.216C408.482 366.47 411.503 367.712 414.732 367.712C417.962 367.712 420.985 366.47 423.236 364.218L446.429 341.032C448.683 338.776 449.925 335.759 449.925 332.53C449.925 329.299 448.683 326.282 446.431 324.029L400.969 278.57C398.716 276.315 395.695 275.076 392.468 275.076ZM414.732 388.785C405.874 388.785 397.561 385.352 391.326 379.119L345.876 333.67C339.641 327.436 336.208 319.124 336.208 310.265C336.206 301.406 339.641 293.094 345.873 286.86L369.061 263.669C375.294 257.435 383.607 254 392.468 254C401.324 254 409.637 257.433 415.871 263.667L461.333 309.125C467.566 315.359 471 323.671 471 332.53C470.998 341.389 467.563 349.701 461.33 355.935L438.137 379.121C431.904 385.352 423.591 388.785 414.732 388.785Z" fill="#F1F1F1"/>
<path d="M278.224 320.801C270.82 320.801 264.798 326.825 264.798 334.229V446.764C264.798 454.167 270.82 460.192 278.224 460.192H390.762C398.167 460.192 404.189 454.167 404.189 446.764V334.229C404.189 326.825 398.167 320.801 390.762 320.801H278.224ZM390.762 481.265H278.224C259.2 481.265 243.723 465.788 243.723 446.764V334.229C243.723 315.205 259.2 299.727 278.224 299.727H390.762C409.787 299.727 425.265 315.205 425.265 334.229V446.764C425.265 465.788 409.787 481.265 390.762 481.265Z" fill="#F1F1F1"/>
</g>
<defs>
<clipPath id="clip0_1_472">
<rect width="1129" height="663" fill="white"/>
</clipPath>
</defs>
</svg>
