<svg width="1042" height="555" viewBox="0 0 1042 555" fill="none" xmlns="http://www.w3.org/2000/svg">
<g clip-path="url(#clip0_1_317)">
<path d="M961.469 438.175C960.309 440.675 959.153 443.142 957.999 445.575C956.199 449.355 954.423 453.062 952.669 456.695C951.889 458.305 951.109 459.885 950.349 461.465C941.749 479.035 933.719 494.575 926.899 507.355C920.711 518.935 911.522 528.638 900.296 535.446C889.069 542.255 876.218 545.919 863.089 546.055L711.439 547.705H709.839L696.839 547.845L685.719 547.965L651.619 548.335H650.239L632.879 548.525H632.349L525.349 549.685L429.839 550.685L418.729 550.805L349.729 551.555H349.649L304.899 552.035H304.419L162.919 553.565L120.589 554.025C116.985 554.066 113.381 553.886 109.799 553.485V553.485C108.579 553.345 107.359 553.185 106.149 552.995C86.4072 549.948 68.3054 540.228 54.8593 525.455C36.6493 505.425 23.3992 482.055 14.4992 456.695C13.2126 453.035 12.0126 449.328 10.8992 445.575C-19.9108 341.425 17.6493 207.055 85.2493 117.135C88.0826 113.375 90.9626 109.708 93.8893 106.135L93.9592 106.055C114.749 80.5351 138.059 59.2151 162.889 44.0551C206.889 17.1451 255.639 9.56509 303.589 32.1551C344.159 51.2751 382.039 60.2651 418.759 62.7051C422.469 62.9451 426.179 63.1251 429.869 63.2351C514.099 65.8851 593.039 35.5351 685.739 15.9451C689.429 15.1651 693.129 14.3951 696.859 13.6651C762.989 0.505089 836.349 -6.43491 923.589 8.15509C932.653 9.63575 941.596 11.7747 950.349 14.5551C954.196 15.7951 957.903 17.1284 961.469 18.5551C1003.11 35.4951 1025.82 66.7951 1035.47 106.015C1036.38 109.655 1037.17 113.358 1037.84 117.125C1054.95 211.465 1004.84 345.285 961.469 438.175Z" fill="#F2F2F2"/>
<path opacity="0.1" d="M497.009 445.575C496.606 449.315 495.982 453.029 495.139 456.695H588.839V445.575H497.009ZM418.759 508.385L429.869 508.295V480.825C426.059 480.655 422.349 480.485 418.759 480.305V508.385ZM185.839 445.575V456.695H384.339V445.575H185.839ZM1035.52 106.055H961.519V18.5651C957.953 17.1185 954.246 15.7851 950.399 14.5651V106.055H696.859V13.6351C693.129 14.3651 689.429 15.1351 685.739 15.9151V106.055H429.869V63.2051C426.179 63.0951 422.469 62.9151 418.759 62.6751V106.055H162.889V44.0551C138.059 59.2151 114.749 80.5351 93.9592 106.055H93.8892V106.135C90.9559 109.735 88.0759 113.402 85.2492 117.135H93.8892V445.575H10.8892C11.9959 449.328 13.1959 453.035 14.4892 456.695H93.8792V550.315C97.8736 551.537 101.951 552.469 106.079 553.105C107.289 553.295 108.509 553.455 109.729 553.595C113.311 553.996 116.915 554.176 120.519 554.135L162.849 553.675V456.675H418.759V550.885L429.869 550.765V456.695H685.739V548.055L696.859 547.935V456.695H950.349V461.465C951.109 459.885 951.889 458.305 952.669 456.695C954.423 453.062 956.199 449.355 957.999 445.575C959.153 443.148 960.309 440.682 961.469 438.175V117.175H1037.89C1037.22 113.382 1036.43 109.675 1035.52 106.055ZM162.889 445.575V117.135H418.759V445.575H162.889ZM429.889 445.575V117.135H685.739V445.575H429.889ZM950.369 445.575H696.859V117.135H950.349L950.369 445.575Z" fill="black"/>
<path d="M863.079 533.615V546.615L711.159 548.015L709.539 548.045L651.799 548.575L650.419 548.595L632.869 548.745H632.349L525.369 549.735L349.759 551.365H349.609L304.959 551.785L304.479 551.795L106.079 553.615V538.615L152.729 510.615L246.329 509.835L248.329 509.825L248.989 509.815L250.989 509.785L295.929 509.415L297.939 509.405L298.579 509.395L300.579 509.385L314.989 509.265L315.369 509.255L350.919 508.955H351.209L628.609 506.615L635.399 506.565H636.079L641.259 506.515L678.909 506.205L680.909 506.175L682.759 506.155H683.719L695.429 506.065L697.749 506.035L700.859 506.015L710.609 505.925L726.079 505.795L728.079 505.775L731.559 505.755H732.209L806.919 505.115L863.079 533.615Z" fill="#65617D"/>
<path opacity="0.2" d="M863.079 533.615V546.615L711.159 548.015L709.539 548.045L651.799 548.575L650.419 548.595L632.869 548.745H632.349L525.369 549.735L349.759 551.365H349.609L304.959 551.785L304.479 551.795L106.079 553.615V538.615L152.729 510.615L246.329 509.835L248.329 509.825L248.989 509.815L250.989 509.785L295.929 509.415L297.939 509.405L298.579 509.395L300.579 509.385L314.989 509.265L315.369 509.255L350.919 508.955H351.209L628.609 506.615L635.399 506.565H636.079L641.259 506.515L678.909 506.205L680.909 506.175L682.759 506.155H683.719L695.429 506.065L697.749 506.035L700.859 506.015L710.609 505.925L726.079 505.795L728.079 505.775L731.559 505.755H732.209L806.919 505.115L863.079 533.615Z" fill="black"/>
<path d="M296.089 483.625V508.115C296.09 509.275 295.761 510.411 295.142 511.392C294.522 512.373 293.637 513.157 292.589 513.655C291.809 514.033 290.956 514.238 290.089 514.255L255.189 514.995C254.257 515.017 253.333 514.822 252.489 514.425C251.423 513.936 250.52 513.152 249.887 512.164C249.254 511.177 248.918 510.028 248.919 508.855V483.625H296.089Z" fill="#3F3D56"/>
<path opacity="0.1" d="M296.089 483.625V508.115C296.09 509.275 295.761 510.411 295.142 511.392C294.522 512.373 293.637 513.157 292.589 513.655C291.809 514.033 290.956 514.238 290.089 514.255L255.189 514.995C254.257 515.017 253.333 514.822 252.489 514.425C251.423 513.936 250.52 513.152 249.887 512.164C249.254 511.177 248.918 510.028 248.919 508.855V483.625H296.089Z" fill="black"/>
<path d="M298.089 483.625V508.115C298.09 509.275 297.761 510.411 297.142 511.392C296.522 512.373 295.637 513.157 294.589 513.655C293.809 514.033 292.956 514.238 292.089 514.255L257.189 514.995C256.257 515.017 255.333 514.822 254.489 514.425C253.423 513.936 252.52 513.152 251.887 512.164C251.254 511.177 250.918 510.028 250.919 508.855V483.625H298.089Z" fill="#3F3D56"/>
<path d="M728.079 483.615H680.909V515.115H728.079V483.615Z" fill="#3F3D56"/>
<path opacity="0.1" d="M728.079 483.615H680.909V515.115H728.079V483.615Z" fill="black"/>
<path d="M726.079 483.615H678.909V515.115H726.079V483.615Z" fill="#3F3D56"/>
<path opacity="0.1" d="M298.079 483.615V488.585L250.909 489.845V483.615H298.079Z" fill="black"/>
<path d="M381.339 312.325V480.525C381.327 481.552 380.921 482.535 380.204 483.27C379.487 484.005 378.515 484.437 377.489 484.475L185.839 489.575H185.789C184.746 489.562 183.748 489.142 183.01 488.404C182.273 487.666 181.852 486.669 181.839 485.625V312.325C181.852 311.282 182.273 310.284 183.01 309.546C183.748 308.808 184.746 308.388 185.789 308.375H377.389C378.433 308.388 379.43 308.808 380.168 309.546C380.906 310.284 381.326 311.282 381.339 312.325V312.325Z" fill="#65617D"/>
<path opacity="0.1" d="M185.839 308.375V489.575H185.789C184.746 489.562 183.748 489.142 183.01 488.404C182.273 487.666 181.852 486.669 181.839 485.625V312.325C181.852 311.282 182.273 310.284 183.01 309.546C183.748 308.808 184.746 308.388 185.789 308.375H185.839Z" fill="black"/>
<path d="M194.579 319.115H372.079V467.365L194.579 471.365V319.115Z" fill="#39374D"/>
<path opacity="0.1" d="M726.079 483.615V490.025L678.909 488.765V483.615H726.079Z" fill="black"/>
<path d="M788.339 312.325V485.625C788.326 486.677 787.899 487.682 787.15 488.421C786.401 489.161 785.391 489.575 784.339 489.575V489.575L592.649 484.475C591.623 484.437 590.651 484.005 589.935 483.27C589.218 482.535 588.811 481.552 588.799 480.525V312.325C588.812 311.282 589.233 310.284 589.971 309.546C590.708 308.808 591.706 308.388 592.749 308.375H784.349C785.4 308.378 786.407 308.793 787.154 309.532C787.9 310.272 788.326 311.275 788.339 312.325V312.325Z" fill="#65617D"/>
<path opacity="0.1" d="M788.339 312.325V485.625C788.326 486.677 787.899 487.682 787.15 488.421C786.401 489.161 785.391 489.575 784.339 489.575V489.575V308.375C785.391 308.375 786.401 308.79 787.15 309.529C787.899 310.268 788.326 311.273 788.339 312.325Z" fill="black"/>
<path d="M775.579 319.115H598.079V467.365L775.579 471.365V319.115Z" fill="#39374D"/>
<path d="M583.839 312.325V480.525C583.827 481.552 583.421 482.535 582.704 483.27C581.987 484.005 581.015 484.437 579.989 484.475L388.339 489.575C387.287 489.575 386.277 489.161 385.528 488.421C384.78 487.682 384.352 486.677 384.339 485.625V312.325C384.352 311.282 384.773 310.284 385.511 309.546C386.249 308.808 387.246 308.388 388.289 308.375H579.889C580.933 308.388 581.93 308.808 582.668 309.546C583.406 310.284 583.826 311.282 583.839 312.325V312.325Z" fill="#65617D"/>
<path d="M397.079 319.115H574.579V467.365L397.079 471.365V319.115Z" fill="#4267B2"/>
<path opacity="0.1" d="M863.079 533.615V546.615L711.159 548.015L709.539 548.045L651.799 548.575L650.419 548.595L632.869 548.745H632.349L525.369 549.735L349.759 551.365H349.609L304.959 551.785L304.479 551.795L106.079 553.615V538.615L308.589 537.285H309.069L350.059 537.005H350.249L633.329 535.135H633.619L633.789 535.125H634.259L639.049 535.095H640.509L714.999 534.595L719.399 534.575L720.379 534.565L863.079 533.615Z" fill="black"/>
<path d="M487.249 349.445C515.598 349.445 538.579 326.464 538.579 298.115C538.579 269.766 515.598 246.785 487.249 246.785C458.9 246.785 435.919 269.766 435.919 298.115C435.919 326.464 458.9 349.445 487.249 349.445Z" fill="#FBBEBE"/>
<path d="M538.589 377.125C538.589 377.125 439.089 389.125 448.589 377.125C452.029 372.785 452.979 359.925 452.789 345.275C452.729 340.825 452.569 336.215 452.339 331.625C451.239 309.625 448.589 288.125 448.589 288.125C448.589 288.125 535.589 247.125 525.589 279.625C521.589 292.755 522.899 311.195 525.939 328.505C526.829 333.555 527.859 338.505 528.939 343.205C531.575 354.669 534.796 365.99 538.589 377.125V377.125Z" fill="#FBBEBE"/>
<path d="M506.119 373.055C517.629 370.925 529.819 367.055 540.649 371.515C543.499 372.685 546.119 374.395 549.039 375.375C551.959 376.355 555.159 376.595 558.199 377.285C568.879 379.705 577.539 387.835 583.099 397.285C588.659 406.735 591.539 417.425 594.359 428.005L601.259 453.835C607.259 476.285 613.259 498.925 614.649 522.135C531.116 526.917 447.392 527.394 363.809 523.565C369.249 513.225 374.809 502.255 374.349 490.565C373.889 478.875 367.159 467.345 369.589 455.825C371.139 448.485 376.159 442.435 379.229 435.605C387.979 416.085 381.169 389.815 396.549 374.955C403.469 368.275 413.549 365.745 423.179 366.065C435.459 366.475 448.029 370.305 460.179 372.175C475.739 374.535 490.439 375.935 506.119 373.055Z" fill="#FF6584"/>
<path opacity="0.1" d="M637.019 484.225L636.919 485.655V485.755L636.749 488.055L635.419 506.565L633.809 528.865L633.349 535.145L632.349 548.585V548.755L525.349 549.755L349.759 551.655V552.495H349.619V551.375L350.069 537.015L350.929 508.955L351.669 485.165L351.739 482.795C351.783 481.365 352.118 479.958 352.723 478.661C353.329 477.365 354.193 476.205 355.261 475.253C356.33 474.301 357.582 473.578 358.94 473.126C360.298 472.674 361.733 472.504 363.159 472.625C367.879 473.025 374.009 473.515 381.339 474.035L384.339 474.255C426.669 477.195 504.899 480.995 583.839 476.255C585.499 476.165 587.169 476.065 588.839 475.945C601.079 475.175 613.309 474.185 625.419 472.945C626.95 472.785 628.498 472.962 629.953 473.464C631.408 473.966 632.735 474.782 633.841 475.852C634.947 476.923 635.804 478.223 636.354 479.661C636.903 481.099 637.13 482.64 637.019 484.175V484.225Z" fill="black"/>
<path d="M349.729 552.495V551.655L525.349 549.745L632.349 548.745H632.649V548.575L633.649 535.135L634.079 529.135L635.719 506.525L637.009 488.625V488.185C637.069 487.36 637.032 486.531 636.899 485.715C636.905 485.682 636.905 485.648 636.899 485.615C636.625 483.927 635.938 482.334 634.899 480.975C633.798 479.563 632.355 478.455 630.707 477.755C629.059 477.055 627.26 476.787 625.479 476.975C613.369 478.215 601.139 479.205 588.899 479.975C587.229 480.095 585.559 480.195 583.899 480.285C504.959 484.975 426.729 481.175 384.399 478.285L381.399 478.065C374.069 477.545 367.939 477.065 363.219 476.655C360.623 476.436 358.037 477.186 355.961 478.762C353.886 480.337 352.467 482.625 351.979 485.185C351.878 485.726 351.818 486.275 351.799 486.825L351.119 508.985L350.189 537.055L349.749 551.415V552.535L349.729 552.495Z" fill="#3F3D56"/>
<path opacity="0.1" d="M637.319 491.235L636.089 506.565L634.259 529.415L633.799 535.135L632.799 547.945L632.739 548.585V548.755L632.589 550.235L632.699 548.755H632.409L525.409 549.755L349.759 551.655V551.375L350.249 537.015L351.249 508.955L351.889 490.305C351.921 489.244 352.217 488.208 352.752 487.291C353.286 486.374 354.042 485.605 354.949 485.055C356.082 484.361 357.406 484.046 358.729 484.155C360.829 484.325 363.409 484.525 366.419 484.745C371.309 485.105 377.339 485.525 384.359 485.965C397.359 486.785 413.669 487.665 432.359 488.385C484.359 490.385 554.559 491.055 621.239 485.215C624.239 484.955 627.339 484.665 630.369 484.375C631.569 484.256 632.777 484.485 633.849 485.035C634.153 485.186 634.441 485.367 634.709 485.575C635.58 486.206 636.269 487.054 636.709 488.035C636.811 488.23 636.895 488.435 636.959 488.645C637.26 489.474 637.382 490.356 637.319 491.235V491.235Z" fill="black"/>
<path opacity="0.1" d="M298.089 504.925V508.115C298.09 509.275 297.761 510.411 297.142 511.392C296.522 512.373 295.637 513.157 294.589 513.655L254.489 514.425C253.423 513.936 252.52 513.151 251.887 512.164C251.254 511.177 250.918 510.028 250.919 508.855V505.855L298.089 504.925Z" fill="black"/>
<path d="M298.579 515.535L246.329 516.535V507.865L298.579 506.865V515.535Z" fill="#3F3D56"/>
<path opacity="0.1" d="M298.579 515.535L246.329 516.535V507.865L298.579 506.865V515.535Z" fill="black"/>
<path d="M300.579 515.535L248.329 516.535V507.865L300.579 506.865V515.535Z" fill="#3F3D56"/>
<path opacity="0.1" d="M679.209 506.925V510.115C679.209 511.275 679.537 512.411 680.157 513.392C680.776 514.373 681.661 515.157 682.709 515.655L722.809 516.425C723.875 515.936 724.779 515.151 725.412 514.164C726.045 513.177 726.38 512.028 726.379 510.855V507.855L679.209 506.925Z" fill="black"/>
<path opacity="0.1" d="M678.709 517.535L730.959 518.535V509.865L678.709 508.865V517.535Z" fill="black"/>
<path d="M676.709 517.535L728.959 518.535V509.865L676.709 508.865V517.535Z" fill="#3F3D56"/>
<path d="M454.779 313.845C454.859 320.845 451.619 327.445 448.869 333.915C438.857 357.483 434.52 383.074 436.209 408.625C436.939 419.625 438.789 430.625 436.939 441.525C435.089 452.425 428.509 463.295 417.939 466.425C435.469 476.875 459.199 475.775 475.699 463.765C484.489 457.365 491.039 448.435 497.449 439.655C496.688 455.427 492.121 470.781 484.139 484.405C498.567 483.128 512.566 478.834 525.229 471.802C537.893 464.77 548.938 455.157 557.649 443.585C561.959 437.775 565.709 431.395 567.369 424.355C570.459 411.355 566.149 397.845 562.859 384.855C560.11 373.996 558.049 362.974 556.689 351.855C556.259 348.295 555.909 344.635 556.789 341.155C557.789 337.085 560.459 333.645 562.429 329.935C568.029 319.395 568.159 306.635 565.289 295.055C562.419 283.475 556.799 272.795 551.229 262.245C546.769 253.785 541.929 244.935 533.769 239.965C528.669 236.865 522.769 235.575 516.889 234.325L491.519 228.895C485.969 227.705 480.259 226.515 474.649 227.385C465.179 228.865 458.509 235.705 452.649 242.725C448.059 248.185 436.839 258.435 436.049 265.585C435.329 272.175 441.149 283.215 442.139 290.165C443.439 299.165 444.359 296.165 449.439 301.685C452.649 305.105 454.719 309.055 454.779 313.845Z" fill="#3F3D56"/>
<path d="M223.641 338.17C223.333 338.17 223.045 338.288 222.831 338.503L218.503 342.831C218.056 343.277 218.056 344.004 218.502 344.451L220.711 346.659C220.925 346.874 221.213 346.992 221.521 346.992C221.828 346.992 222.116 346.874 222.33 346.659L226.659 342.33C226.874 342.116 226.992 341.828 226.992 341.52C226.992 341.213 226.874 340.925 226.659 340.711L224.451 338.503C224.236 338.288 223.948 338.17 223.641 338.17ZM221.521 348.999C220.677 348.999 219.885 348.672 219.291 348.079L217.083 345.87C215.854 344.641 215.854 342.641 217.083 341.412L221.412 337.083C222.005 336.49 222.797 336.163 223.641 336.163C224.484 336.163 225.276 336.49 225.87 337.083L228.078 339.291C228.672 339.885 228.999 340.677 228.999 341.52C228.999 342.364 228.672 343.156 228.079 343.75L223.749 348.079C223.156 348.672 222.364 348.999 221.521 348.999Z" fill="#F1F1F1"/>
<path d="M208.358 338.17C208.05 338.17 207.763 338.288 207.548 338.503L205.34 340.711C205.125 340.925 205.007 341.213 205.007 341.52C205.007 341.828 205.125 342.116 205.34 342.33L209.669 346.659C209.883 346.874 210.171 346.992 210.479 346.992C210.786 346.992 211.074 346.874 211.288 346.659L213.498 344.451C213.712 344.236 213.83 343.948 213.83 343.641C213.83 343.333 213.712 343.046 213.497 342.831L209.168 338.503C208.953 338.288 208.666 338.17 208.358 338.17ZM210.479 348.999C209.635 348.999 208.843 348.672 208.25 348.079L203.921 343.75C203.327 343.156 203 342.364 203 341.52C203 340.677 203.327 339.885 203.921 339.291L206.129 337.083C206.723 336.49 207.514 336.163 208.358 336.163C209.202 336.163 209.993 336.49 210.587 337.083L214.916 341.412C215.51 342.005 215.837 342.797 215.838 343.641C215.838 344.485 215.51 345.276 214.917 345.87L212.708 348.079C212.114 348.672 211.322 348.999 210.479 348.999Z" fill="#F1F1F1"/>
<path d="M210.479 325.007C210.171 325.007 209.883 325.125 209.669 325.34L205.34 329.669C205.125 329.884 205.007 330.171 205.007 330.479C205.007 330.787 205.125 331.074 205.34 331.289L207.548 333.497C207.763 333.712 208.05 333.83 208.358 333.83C208.666 333.83 208.953 333.712 209.168 333.497L213.497 329.168C213.943 328.721 213.943 327.995 213.497 327.548L211.288 325.34C211.074 325.125 210.786 325.007 210.479 325.007ZM208.358 335.837C207.514 335.837 206.723 335.51 206.129 334.917L203.921 332.708C203.327 332.114 203 331.323 203 330.479C203 329.635 203.327 328.844 203.921 328.25L208.25 323.921C208.843 323.327 209.635 323 210.479 323C211.322 323 212.114 323.327 212.708 323.921L214.916 326.129C216.145 327.358 216.145 329.358 214.916 330.587L210.587 334.916C209.993 335.51 209.202 335.837 208.358 335.837Z" fill="#F1F1F1"/>
<path d="M221.521 325.007C221.213 325.007 220.925 325.125 220.711 325.34L218.503 327.549C218.288 327.763 218.17 328.051 218.17 328.359C218.17 328.666 218.288 328.954 218.503 329.168L222.831 333.497C223.046 333.711 223.334 333.83 223.641 333.83C223.949 333.83 224.237 333.711 224.451 333.497L226.66 331.289C226.875 331.074 226.993 330.787 226.993 330.479C226.993 330.171 226.875 329.884 226.66 329.669L222.33 325.34C222.116 325.125 221.828 325.007 221.521 325.007ZM223.641 335.837C222.798 335.837 222.006 335.51 221.412 334.916L217.083 330.588C216.49 329.994 216.163 329.202 216.163 328.359C216.163 327.515 216.49 326.723 217.083 326.13L219.292 323.921C219.885 323.327 220.677 323 221.521 323C222.364 323 223.156 323.327 223.75 323.921L228.079 328.25C228.673 328.844 229 329.635 229 330.479C229 331.323 228.673 332.114 228.079 332.708L225.87 334.916C225.277 335.51 224.485 335.837 223.641 335.837Z" fill="#F1F1F1"/>
<path d="M210.64 329.362C209.935 329.362 209.362 329.936 209.362 330.641V341.358C209.362 342.063 209.935 342.637 210.64 342.637H221.358C222.063 342.637 222.637 342.063 222.637 341.358V330.641C222.637 329.936 222.063 329.362 221.358 329.362H210.64ZM221.358 344.644H210.64C208.829 344.644 207.355 343.17 207.355 341.358V330.641C207.355 328.829 208.829 327.355 210.64 327.355H221.358C223.17 327.355 224.644 328.829 224.644 330.641V341.358C224.644 343.17 223.17 344.644 221.358 344.644Z" fill="#F1F1F1"/>
<path d="M200 354H236V465.026L200 466V354Z" fill="#5E5C70"/>
<path d="M241 324.5C241 324.224 241.224 324 241.5 324H363.5C363.776 324 364 324.224 364 324.5V461.554C364 461.825 363.783 462.047 363.512 462.054L241.512 464.988C241.231 464.994 241 464.769 241 464.488L241 324.5Z" fill="#5E5C70"/>
<path d="M632.463 396.08V391.875L666.31 374.636V381.364L640.347 393.872L640.557 393.452V394.503L640.347 394.082L666.31 406.591V413.318L632.463 396.08ZM698.481 358.659L681.137 423.094H675.461L692.805 358.659H698.481ZM741.466 396.08L707.619 413.318V406.591L733.582 394.082L733.372 394.503V393.452L733.582 393.872L707.619 381.364V374.636L741.466 391.875V396.08Z" fill="#DADADA"/>
</g>
<defs>
<clipPath id="clip0_1_317">
<rect width="1041.28" height="554.141" fill="white"/>
</clipPath>
</defs>
</svg>
